999
FreeCAD v1.0 39109 (Git)
  0
SECTION
  2
HEADER
  9
$ACADVER
  1
AC1014
  9
$ACADMAINTVER
 70
     9
  9
$DWGCODEPAGE
  3
ANSI_1252
  9
$TEXTSTYLE
  7
STANDARD
  9
$DIMSTYLE
  2
STANDARD
  9
$DIMTXSTY
  7
STANDARD
  9
$CMLSTYLE
  2
STANDARD
  9
$LUNITS
 70
2
  9
$INSUNITS
 70
4
  9
$PEXTMAX
 10
50
 20
50
 30
50
  9
$PEXTMIN
 10
0
 20
0
 30
0
  9
$HANDSEED
  5
FFFF
  0
ENDSEC
  0
SECTION
  2
CLASSES
  0
CLASS
  1
ACDBDICTIONARYWDFLT
  2
AcDbDictionaryWithDefault
  3
ObjectDBX Classes
 90
        0
280
     0
281
     0
  0
CLASS
  1
XRECORD
  2
AcDbXrecord
  3
ObjectDBX Classes
 90
        0
280
     0
281
     0
  0
CLASS
  1
LWPOLYLINE
  2
AcDbPolyline
  3
ObjectDBX Classes
 90
        0
280
     0
281
     1
  0
ENDSEC
  0
SECTION
  2
TABLES
  0
TABLE
  2
VPORT
  5
20
330
0
100
AcDbSymbolTable
 70
     1
  0
VPORT
  5
21
330
20
100
AcDbSymbolTableRecord
100
AcDbViewportTableRecord
  2
*ACTIVE
 70
     0
  0
ENDTAB
  0
TABLE
  2
LTYPE
  5
22
330
0
100
AcDbSymbolTable
 70
     1
  0
LTYPE
  5
23
330
21
100
AcDbSymbolTableRecord
100
AcDbLinetypeTableRecord
  2
BYBLOCK
 70
     0
  3

 72
    65
 73
     0
 40
0.0
  0
LTYPE
  5
24
330
21
100
AcDbSymbolTableRecord
100
AcDbLinetypeTableRecord
  2
BYLAYER
 70
     0
  3

 72
    65
 73
     0
 40
0.0
  0
LTYPE
  5
25
330
21
100
AcDbSymbolTableRecord
100
AcDbLinetypeTableRecord
  2
CONTINUOUS
 70
     0
  3
Solid line
 72
    65
 73
     0
 40
0.0
  0
ENDTAB
  0
TABLE
  2
LAYER
  5
B36
330
0
100
AcDbSymbolTable
 70
13
  0
LAYER
  5
B37
330
B36
100
AcDbSymbolTableRecord
100
AcDbLayerTableRecord
  2
0
 70
   0
 62
   7
  6
CONTINUOUS
  0
LAYER
  5
B38
330
B36
100
AcDbSymbolTableRecord
100
AcDbLayerTableRecord
  2
View
 70
    0
 62
    7
  6
CONTINUOUS
  0
LAYER
  5
B39
330
B36
100
AcDbSymbolTableRecord
100
AcDbLayerTableRecord
  2
View001
 70
    0
 62
    7
  6
CONTINUOUS
  0
LAYER
  5
B3A
330
B36
100
AcDbSymbolTableRecord
100
AcDbLayerTableRecord
  2
View002
 70
    0
 62
    7
  6
CONTINUOUS
  0
LAYER
  5
B3B
330
B36
100
AcDbSymbolTableRecord
100
AcDbLayerTableRecord
  2
View003
 70
    0
 62
    7
  6
CONTINUOUS
  0
LAYER
  5
B3C
330
B36
100
AcDbSymbolTableRecord
100
AcDbLayerTableRecord
  2
View004
 70
    0
 62
    7
  6
CONTINUOUS
  0
LAYER
  5
B3D
330
B36
100
AcDbSymbolTableRecord
100
AcDbLayerTableRecord
  2
View005
 70
    0
 62
    7
  6
CONTINUOUS
  0
LAYER
  5
B3E
330
B36
100
AcDbSymbolTableRecord
100
AcDbLayerTableRecord
  2
View006
 70
    0
 62
    7
  6
CONTINUOUS
  0
LAYER
  5
B3F
330
B36
100
AcDbSymbolTableRecord
100
AcDbLayerTableRecord
  2
View007
 70
    0
 62
    7
  6
CONTINUOUS
  0
LAYER
  5
B40
330
B36
100
AcDbSymbolTableRecord
100
AcDbLayerTableRecord
  2
View008
 70
    0
 62
    7
  6
CONTINUOUS
  0
LAYER
  5
B41
330
B36
100
AcDbSymbolTableRecord
100
AcDbLayerTableRecord
  2
View009
 70
    0
 62
    7
  6
CONTINUOUS
  0
LAYER
  5
B42
330
B36
100
AcDbSymbolTableRecord
100
AcDbLayerTableRecord
  2
View010
 70
    0
 62
    7
  6
CONTINUOUS
  0
LAYER
  5
B43
330
B36
100
AcDbSymbolTableRecord
100
AcDbLayerTableRecord
  2
View011
 70
    0
 62
    7
  6
CONTINUOUS
  0
ENDTAB
  0
TABLE
  2
STYLE
  5
70
330
0
100
AcDbSymbolTable
 70
     2
  0
STYLE
  5
71
330
70
100
AcDbSymbolTableRecord
100
AcDbTextStyleTableRecord
  2
STANDARD
 70
     0
 40
0.0
 41
1.0
 50
0.0
 71
     0
 42
2.5
  3
arial.ttf
  4

  0
STYLE
  5
72
330
70
100
AcDbSymbolTableRecord
100
AcDbTextStyleTableRecord
  2
ANNOTATIVE
 70
     0
 40
0.0
 41
1.0
 50
0.0
 71
     0
 42
2.5
  3
arial.ttf
  4

  0
ENDTAB
  0
TABLE
  2
VIEW
  5
73
330
0
100
AcDbSymbolTable
 70
     0
  0
ENDTAB
  0
TABLE
  2
UCS
  5
74
330
0
100
AcDbSymbolTable
 70
     0
  0
ENDTAB
  0
TABLE
  2
APPID
  5
75
330
0
100
AcDbSymbolTable
 70
     2
  0
APPID
  5
76
330
75
100
AcDbSymbolTableRecord
100
AcDbRegAppTableRecord
  2
ACAD
 70
     0
  0
APPID
  5
77
330
75
100
AcDbSymbolTableRecord
100
AcDbRegAppTableRecord
  2
ACADANNOTATIVE
 70
     0
  0
ENDTAB
  0
TABLE
  2
DIMSTYLE
  5
78
330
0
100
AcDbSymbolTable
 70
     2
  0
DIMSTYLE
105
79
330
78
100
AcDbSymbolTableRecord
100
AcDbDimStyleTableRecord
  2
STANDARD
 70
     0
  3

  4

  5

  6

  7

 40
0.0
 41
2.5
 42
0.625
 43
3.75
 44
1.25
 45
0.0
 46
0.0
 47
0.0
 48
0.0
140
2.5
141
2.5
142
0.0
143
0.03937007874016
144
1.0
145
0.0
146
1.0
147
0.625
 71
     0
 72
     0
 73
     0
 74
     0
 75
     0
 76
     0
 77
     1
 78
     8
170
     0
171
     3
172
     1
173
     0
174
     0
175
     0
176
     0
177
     0
178
     0
270
     2
271
     2
272
     2
273
     2
274
     3
340
71
275
     0
280
     0
281
     0
282
     0
283
     0
284
     8
285
     0
286
     0
287
     3
288
     0
  0
ENDTAB
  0
TABLE
  2
BLOCK_RECORD
  5
A01
330
0
100
AcDbSymbolTable
  70
5
  0
BLOCK_RECORD
  5
A02
330
A01
100
AcDbSymbolTableRecord
100
AcDbBlockTableRecord
  2
*MODEL_SPACE
  0
BLOCK_RECORD
  5
A03
330
A01
100
AcDbSymbolTableRecord
100
AcDbBlockTableRecord
  2
*PAPER_SPACE
  0
ENDTAB
  0
ENDSEC
  0
SECTION
  2
BLOCKS
  0
BLOCK
  5
A04
330
A02
100
AcDbEntity
  8
0
100
AcDbBlockBegin
  2
*MODEL_SPACE
 70
   0
 10
0
 20
0
 30
0
  3
*MODEL_SPACE
  1
 
  0
ENDBLK
  5
A05
330
A02
100
AcDbEntity
  8
0
100
AcDbBlockEnd
  0
BLOCK
  5
A06
330
A03
100
AcDbEntity
 67
1
  8
0
100
AcDbBlockBegin
  2
*PAPER_SPACE
 70
   0
 10
0
 20
0
 30
0
  3
*PAPER_SPACE
  1
 
  0
ENDBLK
  5
A07
330
A03
100
AcDbEntity
 67
    1
  8
0
100
AcDbBlockEnd
  0
ENDSEC
  0
SECTION
  2
ENTITIES
  0
LINE
  5
A08
330
A02
100
AcDbEntity
  8
View
100
AcDbLine
 10
2.000000000
 20
289.500000000
 30
0.000000000
 11
2.000000000
 21
114.500000000
 31
0.000000000
  0
ARC
  5
A09
330
A02
100
AcDbEntity
  8
View
100
AcDbCircle
 10
7.000000000
 20
289.500000000
 30
0.000000000
 40
5.000000000
100
AcDbArc
 50
90.000000000
 51
180.000000000
  0
ARC
  5
A0A
330
A02
100
AcDbEntity
  8
View
100
AcDbCircle
 10
7.000000000
 20
114.500000000
 30
0.000000000
 40
5.000000000
100
AcDbArc
 50
180.000000000
 51
-90.000000000
  0
LINE
  5
A0B
330
A02
100
AcDbEntity
  8
View
100
AcDbLine
 10
87.000000000
 20
294.500000000
 30
0.000000000
 11
7.000000000
 21
294.500000000
 31
0.000000000
  0
LINE
  5
A0C
330
A02
100
AcDbEntity
  8
View
100
AcDbLine
 10
7.000000000
 20
109.500000000
 30
0.000000000
 11
87.000000000
 21
109.500000000
 31
0.000000000
  0
ARC
  5
A0D
330
A02
100
AcDbEntity
  8
View
100
AcDbCircle
 10
87.000000000
 20
289.500000000
 30
0.000000000
 40
5.000000000
100
AcDbArc
 50
0.000000000
 51
90.000000000
  0
ARC
  5
A0E
330
A02
100
AcDbEntity
  8
View
100
AcDbCircle
 10
87.000000000
 20
114.500000000
 30
0.000000000
 40
5.000000000
100
AcDbArc
 50
-90.000000000
 51
0.000000000
  0
LINE
  5
A0F
330
A02
100
AcDbEntity
  8
View
100
AcDbLine
 10
92.000000000
 20
114.500000000
 30
0.000000000
 11
92.000000000
 21
289.500000000
 31
0.000000000
  0
CIRCLE
  5
A10
330
A02
100
AcDbEntity
  8
View
100
AcDbCircle
 10
7.000000000
 20
114.500000000
 30
0.000000000
 40
1.600000000
  0
CIRCLE
  5
A11
330
A02
100
AcDbEntity
  8
View
100
AcDbCircle
 10
33.049999620
 20
126.899999220
 30
0.000000000
 40
1.625000000
  0
CIRCLE
  5
A12
330
A02
100
AcDbEntity
  8
View
100
AcDbCircle
 10
23.925000000
 20
169.925000000
 30
0.000000000
 40
1.150000000
  0
CIRCLE
  5
A13
330
A02
100
AcDbEntity
  8
View
100
AcDbCircle
 10
60.849999900
 20
152.099999620
 30
0.000000000
 40
1.625000000
  0
CIRCLE
  5
A14
330
A02
100
AcDbEntity
  8
View
100
AcDbCircle
 10
87.000000000
 20
114.500000000
 30
0.000000000
 40
1.600000000
  0
ARC
  5
A15
330
A02
100
AcDbEntity
  8
View
100
AcDbCircle
 10
27.000000000
 20
224.900000000
 30
0.000000000
 40
3.100000000
100
AcDbArc
 50
90.000000000
 51
180.000000000
  0
LINE
  5
A16
330
A02
100
AcDbEntity
  8
View
100
AcDbLine
 10
27.000000000
 20
228.000000000
 30
0.000000000
 11
67.000000000
 21
228.000000000
 31
0.000000000
  0
LINE
  5
A17
330
A02
100
AcDbEntity
  8
View
100
AcDbLine
 10
23.900000000
 20
174.100000000
 30
0.000000000
 11
23.900000000
 21
224.900000000
 31
0.000000000
  0
ARC
  5
A18
330
A02
100
AcDbEntity
  8
View
100
AcDbCircle
 10
67.000000000
 20
224.900000000
 30
0.000000000
 40
3.100000000
100
AcDbArc
 50
0.000000000
 51
90.000000000
  0
ARC
  5
A19
330
A02
100
AcDbEntity
  8
View
100
AcDbCircle
 10
27.000000000
 20
174.100000000
 30
0.000000000
 40
3.100000000
100
AcDbArc
 50
180.000000000
 51
-90.000000000
  0
LINE
  5
A1A
330
A02
100
AcDbEntity
  8
View
100
AcDbLine
 10
70.100000000
 20
224.900000000
 30
0.000000000
 11
70.100000000
 21
174.100000000
 31
0.000000000
  0
LINE
  5
A1B
330
A02
100
AcDbEntity
  8
View
100
AcDbLine
 10
67.000000000
 20
171.000000000
 30
0.000000000
 11
27.000000000
 21
171.000000000
 31
0.000000000
  0
ARC
  5
A1C
330
A02
100
AcDbEntity
  8
View
100
AcDbCircle
 10
67.000000000
 20
174.100000000
 30
0.000000000
 40
3.100000000
100
AcDbArc
 50
-90.000000000
 51
0.000000000
  0
CIRCLE
  5
A1D
330
A02
100
AcDbEntity
  8
View
100
AcDbCircle
 10
70.075000000
 20
169.925000000
 30
0.000000000
 40
1.150000000
  0
CIRCLE
  5
A1E
330
A02
100
AcDbEntity
  8
View
100
AcDbCircle
 10
7.000000000
 20
202.000000000
 30
0.000000000
 40
1.600000000
  0
CIRCLE
  5
A1F
330
A02
100
AcDbEntity
  8
View
100
AcDbCircle
 10
14.390000000
 20
237.890000000
 30
0.000000000
 40
1.610000000
  0
CIRCLE
  5
A20
330
A02
100
AcDbEntity
  8
View
100
AcDbCircle
 10
23.925000000
 20
229.075000000
 30
0.000000000
 40
1.150000000
  0
CIRCLE
  5
A21
330
A02
100
AcDbEntity
  8
View
100
AcDbCircle
 10
7.000000000
 20
289.500000000
 30
0.000000000
 40
1.600000000
  0
CIRCLE
  5
A22
330
A02
100
AcDbEntity
  8
View
100
AcDbCircle
 10
14.390000000
 20
281.110000000
 30
0.000000000
 40
1.610000000
  0
CIRCLE
  5
A23
330
A02
100
AcDbEntity
  8
View
100
AcDbCircle
 10
87.000000000
 20
202.000000000
 30
0.000000000
 40
1.600000000
  0
CIRCLE
  5
A24
330
A02
100
AcDbEntity
  8
View
100
AcDbCircle
 10
70.075000000
 20
229.075000000
 30
0.000000000
 40
1.150000000
  0
CIRCLE
  5
A25
330
A02
100
AcDbEntity
  8
View
100
AcDbCircle
 10
79.610000000
 20
237.890000000
 30
0.000000000
 40
1.610000000
  0
LINE
  5
A26
330
A02
100
AcDbEntity
  8
View
100
AcDbLine
 10
15.680000000
 20
240.140000000
 30
0.000000000
 11
27.680000000
 21
240.140000000
 31
0.000000000
  0
ARC
  5
A27
330
A02
100
AcDbEntity
  8
View
100
AcDbCircle
 10
15.680000000
 20
240.240000000
 30
0.000000000
 40
0.100000000
100
AcDbArc
 50
180.000000000
 51
-90.000000000
  0
ARC
  5
A28
330
A02
100
AcDbEntity
  8
View
100
AcDbCircle
 10
27.680000000
 20
238.740000000
 30
0.000000000
 40
1.400000000
100
AcDbArc
 50
58.819038299
 51
90.000000000
  0
LINE
  5
A29
330
A02
100
AcDbEntity
  8
View
100
AcDbLine
 10
15.580000000
 20
279.420000000
 30
0.000000000
 11
15.580000000
 21
240.240000000
 31
0.000000000
  0
LINE
  5
A2A
330
A02
100
AcDbEntity
  8
View
100
AcDbLine
 10
28.404839863
 20
239.937750881
 30
0.000000000
 11
29.671611585
 21
239.171141850
 31
0.000000000
  0
ARC
  5
A2B
330
A02
100
AcDbEntity
  8
View
100
AcDbCircle
 10
15.680000000
 20
279.420000000
 30
0.000000000
 40
0.100000000
100
AcDbArc
 50
90.000000000
 51
180.000000000
  0
ARC
  5
A2C
330
A02
100
AcDbEntity
  8
View
100
AcDbCircle
 10
30.500000000
 20
240.540000000
 30
0.000000000
 40
1.600000000
100
AcDbArc
 50
-121.180961701
 51
-90.000000000
  0
LINE
  5
A2D
330
A02
100
AcDbEntity
  8
View
100
AcDbLine
 10
78.320000000
 20
279.520000000
 30
0.000000000
 11
15.680000000
 21
279.520000000
 31
0.000000000
  0
LINE
  5
A2E
330
A02
100
AcDbEntity
  8
View
100
AcDbLine
 10
30.500000000
 20
238.940000000
 30
0.000000000
 11
63.500000000
 21
238.940000000
 31
0.000000000
  0
ARC
  5
A2F
330
A02
100
AcDbEntity
  8
View
100
AcDbCircle
 10
78.320000000
 20
279.420000000
 30
0.000000000
 40
0.100000000
100
AcDbArc
 50
0.000000000
 51
90.000000000
  0
ARC
  5
A30
330
A02
100
AcDbEntity
  8
View
100
AcDbCircle
 10
63.500000000
 20
240.540000000
 30
0.000000000
 40
1.600000000
100
AcDbArc
 50
-90.000000000
 51
-58.819038299
  0
LINE
  5
A31
330
A02
100
AcDbEntity
  8
View
100
AcDbLine
 10
78.420000000
 20
240.240000000
 30
0.000000000
 11
78.420000000
 21
279.420000000
 31
0.000000000
  0
LINE
  5
A32
330
A02
100
AcDbEntity
  8
View
100
AcDbLine
 10
64.328388415
 20
239.171141850
 30
0.000000000
 11
65.595160137
 21
239.937750881
 31
0.000000000
  0
ARC
  5
A33
330
A02
100
AcDbEntity
  8
View
100
AcDbCircle
 10
78.320000000
 20
240.240000000
 30
0.000000000
 40
0.100000000
100
AcDbArc
 50
-90.000000000
 51
0.000000000
  0
ARC
  5
A34
330
A02
100
AcDbEntity
  8
View
100
AcDbCircle
 10
66.320000000
 20
238.740000000
 30
0.000000000
 40
1.400000000
100
AcDbArc
 50
90.000000000
 51
121.180961701
  0
LINE
  5
A35
330
A02
100
AcDbEntity
  8
View
100
AcDbLine
 10
66.320000000
 20
240.140000000
 30
0.000000000
 11
78.320000000
 21
240.140000000
 31
0.000000000
  0
CIRCLE
  5
A36
330
A02
100
AcDbEntity
  8
View
100
AcDbCircle
 10
79.610000000
 20
281.110000000
 30
0.000000000
 40
1.610000000
  0
CIRCLE
  5
A37
330
A02
100
AcDbEntity
  8
View
100
AcDbCircle
 10
87.000000000
 20
289.500000000
 30
0.000000000
 40
1.600000000
  0
LINE
  5
A38
330
A02
100
AcDbEntity
  8
View001
100
AcDbLine
 10
95.000000000
 20
289.500000000
 30
0.000000000
 11
95.000000000
 21
114.500000000
 31
0.000000000
  0
ARC
  5
A39
330
A02
100
AcDbEntity
  8
View001
100
AcDbCircle
 10
100.000000000
 20
289.500000000
 30
0.000000000
 40
5.000000000
100
AcDbArc
 50
90.000000000
 51
180.000000000
  0
ARC
  5
A3A
330
A02
100
AcDbEntity
  8
View001
100
AcDbCircle
 10
100.000000000
 20
114.500000000
 30
0.000000000
 40
5.000000000
100
AcDbArc
 50
180.000000000
 51
-90.000000000
  0
LINE
  5
A3B
330
A02
100
AcDbEntity
  8
View001
100
AcDbLine
 10
180.000000000
 20
294.500000000
 30
0.000000000
 11
100.000000000
 21
294.500000000
 31
0.000000000
  0
LINE
  5
A3C
330
A02
100
AcDbEntity
  8
View001
100
AcDbLine
 10
100.000000000
 20
109.500000000
 30
0.000000000
 11
180.000000000
 21
109.500000000
 31
0.000000000
  0
ARC
  5
A3D
330
A02
100
AcDbEntity
  8
View001
100
AcDbCircle
 10
180.000000000
 20
289.500000000
 30
0.000000000
 40
5.000000000
100
AcDbArc
 50
0.000000000
 51
90.000000000
  0
ARC
  5
A3E
330
A02
100
AcDbEntity
  8
View001
100
AcDbCircle
 10
180.000000000
 20
114.500000000
 30
0.000000000
 40
5.000000000
100
AcDbArc
 50
-90.000000000
 51
0.000000000
  0
LINE
  5
A3F
330
A02
100
AcDbEntity
  8
View001
100
AcDbLine
 10
185.000000000
 20
114.500000000
 30
0.000000000
 11
185.000000000
 21
289.500000000
 31
0.000000000
  0
LINE
  5
A40
330
A02
100
AcDbEntity
  8
View001
100
AcDbLine
 10
98.383419246
 20
117.300000000
 30
0.000000000
 11
101.616580754
 21
117.300000000
 31
0.000000000
  0
LINE
  5
A41
330
A02
100
AcDbEntity
  8
View001
100
AcDbLine
 10
96.766838493
 20
114.500000000
 30
0.000000000
 11
98.383419246
 21
117.300000000
 31
0.000000000
  0
LINE
  5
A42
330
A02
100
AcDbEntity
  8
View001
100
AcDbLine
 10
98.383419246
 20
111.700000000
 30
0.000000000
 11
96.766838493
 21
114.500000000
 31
0.000000000
  0
LINE
  5
A43
330
A02
100
AcDbEntity
  8
View001
100
AcDbLine
 10
101.616580754
 20
111.700000000
 30
0.000000000
 11
98.383419246
 21
111.700000000
 31
0.000000000
  0
LINE
  5
A44
330
A02
100
AcDbEntity
  8
View001
100
AcDbLine
 10
103.233161507
 20
114.500000000
 30
0.000000000
 11
101.616580754
 21
111.700000000
 31
0.000000000
  0
LINE
  5
A45
330
A02
100
AcDbEntity
  8
View001
100
AcDbLine
 10
101.616580754
 20
117.300000000
 30
0.000000000
 11
103.233161507
 21
114.500000000
 31
0.000000000
  0
CIRCLE
  5
A46
330
A02
100
AcDbEntity
  8
View001
100
AcDbCircle
 10
112.000000000
 20
117.500000000
 30
0.000000000
 40
1.100000000
  0
CIRCLE
  5
A47
330
A02
100
AcDbEntity
  8
View001
100
AcDbCircle
 10
100.000000000
 20
143.666666667
 30
0.000000000
 40
3.150000000
  0
CIRCLE
  5
A48
330
A02
100
AcDbEntity
  8
View001
100
AcDbCircle
 10
112.000000000
 20
153.500000000
 30
0.000000000
 40
1.100000000
  0
CIRCLE
  5
A49
330
A02
100
AcDbEntity
  8
View001
100
AcDbCircle
 10
126.666666667
 20
114.500000000
 30
0.000000000
 40
3.150000000
  0
CIRCLE
  5
A4A
330
A02
100
AcDbEntity
  8
View001
100
AcDbCircle
 10
100.000000000
 20
172.833333333
 30
0.000000000
 40
3.150000000
  0
CIRCLE
  5
A4B
330
A02
100
AcDbEntity
  8
View001
100
AcDbCircle
 10
153.333333333
 20
114.500000000
 30
0.000000000
 40
3.150000000
  0
CIRCLE
  5
A4C
330
A02
100
AcDbEntity
  8
View001
100
AcDbCircle
 10
168.000000000
 20
117.500000000
 30
0.000000000
 40
1.100000000
  0
LINE
  5
A4D
330
A02
100
AcDbEntity
  8
View001
100
AcDbLine
 10
181.616580754
 20
111.700000000
 30
0.000000000
 11
178.383419246
 21
111.700000000
 31
0.000000000
  0
LINE
  5
A4E
330
A02
100
AcDbEntity
  8
View001
100
AcDbLine
 10
183.233161507
 20
114.500000000
 30
0.000000000
 11
181.616580754
 21
111.700000000
 31
0.000000000
  0
LINE
  5
A4F
330
A02
100
AcDbEntity
  8
View001
100
AcDbLine
 10
181.616580754
 20
117.300000000
 30
0.000000000
 11
183.233161507
 21
114.500000000
 31
0.000000000
  0
LINE
  5
A50
330
A02
100
AcDbEntity
  8
View001
100
AcDbLine
 10
178.383419246
 20
117.300000000
 30
0.000000000
 11
181.616580754
 21
117.300000000
 31
0.000000000
  0
LINE
  5
A51
330
A02
100
AcDbEntity
  8
View001
100
AcDbLine
 10
176.766838493
 20
114.500000000
 30
0.000000000
 11
178.383419246
 21
117.300000000
 31
0.000000000
  0
LINE
  5
A52
330
A02
100
AcDbEntity
  8
View001
100
AcDbLine
 10
178.383419246
 20
111.700000000
 30
0.000000000
 11
176.766838493
 21
114.500000000
 31
0.000000000
  0
CIRCLE
  5
A53
330
A02
100
AcDbEntity
  8
View001
100
AcDbCircle
 10
168.000000000
 20
153.500000000
 30
0.000000000
 40
1.100000000
  0
CIRCLE
  5
A54
330
A02
100
AcDbEntity
  8
View001
100
AcDbCircle
 10
180.000000000
 20
143.666666667
 30
0.000000000
 40
3.150000000
  0
CIRCLE
  5
A55
330
A02
100
AcDbEntity
  8
View001
100
AcDbCircle
 10
180.000000000
 20
172.833333333
 30
0.000000000
 40
3.150000000
  0
LINE
  5
A56
330
A02
100
AcDbEntity
  8
View001
100
AcDbLine
 10
98.383419246
 20
204.800000000
 30
0.000000000
 11
101.616580754
 21
204.800000000
 31
0.000000000
  0
LINE
  5
A57
330
A02
100
AcDbEntity
  8
View001
100
AcDbLine
 10
96.766838493
 20
202.000000000
 30
0.000000000
 11
98.383419246
 21
204.800000000
 31
0.000000000
  0
LINE
  5
A58
330
A02
100
AcDbEntity
  8
View001
100
AcDbLine
 10
98.383419246
 20
199.200000000
 30
0.000000000
 11
96.766838493
 21
202.000000000
 31
0.000000000
  0
LINE
  5
A59
330
A02
100
AcDbEntity
  8
View001
100
AcDbLine
 10
101.616580754
 20
199.200000000
 30
0.000000000
 11
98.383419246
 21
199.200000000
 31
0.000000000
  0
LINE
  5
A5A
330
A02
100
AcDbEntity
  8
View001
100
AcDbLine
 10
103.233161507
 20
202.000000000
 30
0.000000000
 11
101.616580754
 21
199.200000000
 31
0.000000000
  0
LINE
  5
A5B
330
A02
100
AcDbEntity
  8
View001
100
AcDbLine
 10
101.616580754
 20
204.800000000
 30
0.000000000
 11
103.233161507
 21
202.000000000
 31
0.000000000
  0
CIRCLE
  5
A5C
330
A02
100
AcDbEntity
  8
View001
100
AcDbCircle
 10
100.000000000
 20
231.166666667
 30
0.000000000
 40
3.150000000
  0
CIRCLE
  5
A5D
330
A02
100
AcDbEntity
  8
View001
100
AcDbCircle
 10
100.000000000
 20
260.333333333
 30
0.000000000
 40
3.150000000
  0
LINE
  5
A5E
330
A02
100
AcDbEntity
  8
View001
100
AcDbLine
 10
98.383419246
 20
292.300000000
 30
0.000000000
 11
101.616580754
 21
292.300000000
 31
0.000000000
  0
LINE
  5
A5F
330
A02
100
AcDbEntity
  8
View001
100
AcDbLine
 10
96.766838493
 20
289.500000000
 30
0.000000000
 11
98.383419246
 21
292.300000000
 31
0.000000000
  0
LINE
  5
A60
330
A02
100
AcDbEntity
  8
View001
100
AcDbLine
 10
98.383419246
 20
286.700000000
 30
0.000000000
 11
96.766838493
 21
289.500000000
 31
0.000000000
  0
LINE
  5
A61
330
A02
100
AcDbEntity
  8
View001
100
AcDbLine
 10
101.616580754
 20
286.700000000
 30
0.000000000
 11
98.383419246
 21
286.700000000
 31
0.000000000
  0
LINE
  5
A62
330
A02
100
AcDbEntity
  8
View001
100
AcDbLine
 10
103.233161507
 20
289.500000000
 30
0.000000000
 11
101.616580754
 21
286.700000000
 31
0.000000000
  0
LINE
  5
A63
330
A02
100
AcDbEntity
  8
View001
100
AcDbLine
 10
101.616580754
 20
292.300000000
 30
0.000000000
 11
103.233161507
 21
289.500000000
 31
0.000000000
  0
CIRCLE
  5
A64
330
A02
100
AcDbEntity
  8
View001
100
AcDbCircle
 10
126.666666667
 20
289.500000000
 30
0.000000000
 40
3.150000000
  0
LINE
  5
A65
330
A02
100
AcDbEntity
  8
View001
100
AcDbLine
 10
181.616580754
 20
204.800000000
 30
0.000000000
 11
183.233161507
 21
202.000000000
 31
0.000000000
  0
LINE
  5
A66
330
A02
100
AcDbEntity
  8
View001
100
AcDbLine
 10
178.383419246
 20
204.800000000
 30
0.000000000
 11
181.616580754
 21
204.800000000
 31
0.000000000
  0
LINE
  5
A67
330
A02
100
AcDbEntity
  8
View001
100
AcDbLine
 10
176.766838493
 20
202.000000000
 30
0.000000000
 11
178.383419246
 21
204.800000000
 31
0.000000000
  0
LINE
  5
A68
330
A02
100
AcDbEntity
  8
View001
100
AcDbLine
 10
178.383419246
 20
199.200000000
 30
0.000000000
 11
176.766838493
 21
202.000000000
 31
0.000000000
  0
LINE
  5
A69
330
A02
100
AcDbEntity
  8
View001
100
AcDbLine
 10
181.616580754
 20
199.200000000
 30
0.000000000
 11
178.383419246
 21
199.200000000
 31
0.000000000
  0
LINE
  5
A6A
330
A02
100
AcDbEntity
  8
View001
100
AcDbLine
 10
183.233161507
 20
202.000000000
 30
0.000000000
 11
181.616580754
 21
199.200000000
 31
0.000000000
  0
CIRCLE
  5
A6B
330
A02
100
AcDbEntity
  8
View001
100
AcDbCircle
 10
180.000000000
 20
231.166666667
 30
0.000000000
 40
3.150000000
  0
CIRCLE
  5
A6C
330
A02
100
AcDbEntity
  8
View001
100
AcDbCircle
 10
153.333333333
 20
289.500000000
 30
0.000000000
 40
3.150000000
  0
CIRCLE
  5
A6D
330
A02
100
AcDbEntity
  8
View001
100
AcDbCircle
 10
180.000000000
 20
260.333333333
 30
0.000000000
 40
3.150000000
  0
LINE
  5
A6E
330
A02
100
AcDbEntity
  8
View001
100
AcDbLine
 10
181.616580754
 20
286.700000000
 30
0.000000000
 11
178.383419246
 21
286.700000000
 31
0.000000000
  0
LINE
  5
A6F
330
A02
100
AcDbEntity
  8
View001
100
AcDbLine
 10
183.233161507
 20
289.500000000
 30
0.000000000
 11
181.616580754
 21
286.700000000
 31
0.000000000
  0
LINE
  5
A70
330
A02
100
AcDbEntity
  8
View001
100
AcDbLine
 10
181.616580754
 20
292.300000000
 30
0.000000000
 11
183.233161507
 21
289.500000000
 31
0.000000000
  0
LINE
  5
A71
330
A02
100
AcDbEntity
  8
View001
100
AcDbLine
 10
178.383419246
 20
292.300000000
 30
0.000000000
 11
181.616580754
 21
292.300000000
 31
0.000000000
  0
LINE
  5
A72
330
A02
100
AcDbEntity
  8
View001
100
AcDbLine
 10
176.766838493
 20
289.500000000
 30
0.000000000
 11
178.383419246
 21
292.300000000
 31
0.000000000
  0
LINE
  5
A73
330
A02
100
AcDbEntity
  8
View001
100
AcDbLine
 10
178.383419246
 20
286.700000000
 30
0.000000000
 11
176.766838493
 21
289.500000000
 31
0.000000000
  0
ARC
  5
A74
330
A02
100
AcDbEntity
  8
View002
100
AcDbCircle
 10
193.500000000
 20
289.500000000
 30
0.000000000
 40
5.000000000
100
AcDbArc
 50
-66.421821522
 51
-23.578178478
  0
LINE
  5
A75
330
A02
100
AcDbEntity
  8
View002
100
AcDbLine
 10
198.082575695
 20
287.500000000
 30
0.000000000
 11
233.500000000
 21
287.500000000
 31
0.000000000
  0
LINE
  5
A76
330
A02
100
AcDbEntity
  8
View002
100
AcDbLine
 10
233.500000000
 20
294.500000000
 30
0.000000000
 11
233.500000000
 21
287.500000000
 31
0.000000000
  0
LINE
  5
A77
330
A02
100
AcDbEntity
  8
View002
100
AcDbLine
 10
193.500000000
 20
294.500000000
 30
0.000000000
 11
233.500000000
 21
294.500000000
 31
0.000000000
  0
ARC
  5
A78
330
A02
100
AcDbEntity
  8
View002
100
AcDbCircle
 10
193.500000000
 20
289.500000000
 30
0.000000000
 40
5.000000000
100
AcDbArc
 50
90.000000000
 51
180.000000000
  0
LINE
  5
A79
330
A02
100
AcDbEntity
  8
View002
100
AcDbLine
 10
188.500000000
 20
289.500000000
 30
0.000000000
 11
188.500000000
 21
114.500000000
 31
0.000000000
  0
ARC
  5
A7A
330
A02
100
AcDbEntity
  8
View002
100
AcDbCircle
 10
193.500000000
 20
114.500000000
 30
0.000000000
 40
5.000000000
100
AcDbArc
 50
180.000000000
 51
-90.000000000
  0
LINE
  5
A7B
330
A02
100
AcDbEntity
  8
View002
100
AcDbLine
 10
193.500000000
 20
109.500000000
 30
0.000000000
 11
233.500000000
 21
109.500000000
 31
0.000000000
  0
LINE
  5
A7C
330
A02
100
AcDbEntity
  8
View002
100
AcDbLine
 10
233.500000000
 20
109.500000000
 30
0.000000000
 11
233.500000000
 21
114.500000000
 31
0.000000000
  0
LINE
  5
A7D
330
A02
100
AcDbEntity
  8
View002
100
AcDbLine
 10
233.500000000
 20
114.500000000
 30
0.000000000
 11
198.500000000
 21
114.500000000
 31
0.000000000
  0
ARC
  5
A7E
330
A02
100
AcDbEntity
  8
View002
100
AcDbCircle
 10
193.500000000
 20
114.500000000
 30
0.000000000
 40
5.000000000
100
AcDbArc
 50
-0.000000000
 51
66.421821522
  0
LINE
  5
A7F
330
A02
100
AcDbEntity
  8
View002
100
AcDbLine
 10
195.500000000
 20
197.417424305
 30
0.000000000
 11
195.500000000
 21
119.082575695
 31
0.000000000
  0
ARC
  5
A80
330
A02
100
AcDbEntity
  8
View002
100
AcDbCircle
 10
193.500000000
 20
202.000000000
 30
0.000000000
 40
5.000000000
100
AcDbArc
 50
-66.421821522
 51
66.421821522
  0
LINE
  5
A81
330
A02
100
AcDbEntity
  8
View002
100
AcDbLine
 10
195.500000000
 20
284.917424305
 30
0.000000000
 11
195.500000000
 21
206.582575695
 31
0.000000000
  0
CIRCLE
  5
A82
330
A02
100
AcDbEntity
  8
View002
100
AcDbCircle
 10
193.500000000
 20
202.000000000
 30
0.000000000
 40
1.600000000
  0
CIRCLE
  5
A83
330
A02
100
AcDbEntity
  8
View002
100
AcDbCircle
 10
193.500000000
 20
114.500000000
 30
0.000000000
 40
1.600000000
  0
CIRCLE
  5
A84
330
A02
100
AcDbEntity
  8
View002
100
AcDbCircle
 10
193.500000000
 20
289.500000000
 30
0.000000000
 40
1.600000000
  0
ARC
  5
A85
330
A02
100
AcDbEntity
  8
View003
100
AcDbCircle
 10
398.143729092
 20
277.500000000
 30
0.000000000
 40
5.000000000
100
AcDbArc
 50
-156.421821522
 51
-113.578178478
  0
LINE
  5
A86
330
A02
100
AcDbEntity
  8
View003
100
AcDbLine
 10
396.143729092
 20
272.917424305
 30
0.000000000
 11
396.143729092
 21
237.500000000
 31
0.000000000
  0
LINE
  5
A87
330
A02
100
AcDbEntity
  8
View003
100
AcDbLine
 10
403.143729092
 20
237.500000000
 30
0.000000000
 11
396.143729092
 21
237.500000000
 31
0.000000000
  0
LINE
  5
A88
330
A02
100
AcDbEntity
  8
View003
100
AcDbLine
 10
403.143729092
 20
277.500000000
 30
0.000000000
 11
403.143729092
 21
237.500000000
 31
0.000000000
  0
ARC
  5
A89
330
A02
100
AcDbEntity
  8
View003
100
AcDbCircle
 10
398.143729092
 20
277.500000000
 30
0.000000000
 40
5.000000000
100
AcDbArc
 50
0.000000000
 51
90.000000000
  0
LINE
  5
A8A
330
A02
100
AcDbEntity
  8
View003
100
AcDbLine
 10
398.143729092
 20
282.500000000
 30
0.000000000
 11
223.143729092
 21
282.500000000
 31
0.000000000
  0
ARC
  5
A8B
330
A02
100
AcDbEntity
  8
View003
100
AcDbCircle
 10
223.143729092
 20
277.500000000
 30
0.000000000
 40
5.000000000
100
AcDbArc
 50
90.000000000
 51
180.000000000
  0
LINE
  5
A8C
330
A02
100
AcDbEntity
  8
View003
100
AcDbLine
 10
218.143729092
 20
277.500000000
 30
0.000000000
 11
218.143729092
 21
237.500000000
 31
0.000000000
  0
LINE
  5
A8D
330
A02
100
AcDbEntity
  8
View003
100
AcDbLine
 10
218.143729092
 20
237.500000000
 30
0.000000000
 11
223.143729092
 21
237.500000000
 31
0.000000000
  0
LINE
  5
A8E
330
A02
100
AcDbEntity
  8
View003
100
AcDbLine
 10
223.143729092
 20
237.500000000
 30
0.000000000
 11
223.143729092
 21
272.500000000
 31
0.000000000
  0
ARC
  5
A8F
330
A02
100
AcDbEntity
  8
View003
100
AcDbCircle
 10
223.143729092
 20
277.500000000
 30
0.000000000
 40
5.000000000
100
AcDbArc
 50
-90.000000000
 51
-23.578178478
  0
LINE
  5
A90
330
A02
100
AcDbEntity
  8
View003
100
AcDbLine
 10
306.061153397
 20
275.500000000
 30
0.000000000
 11
227.726304787
 21
275.500000000
 31
0.000000000
  0
ARC
  5
A91
330
A02
100
AcDbEntity
  8
View003
100
AcDbCircle
 10
310.643729092
 20
277.500000000
 30
0.000000000
 40
5.000000000
100
AcDbArc
 50
-156.421821522
 51
-23.578178478
  0
LINE
  5
A92
330
A02
100
AcDbEntity
  8
View003
100
AcDbLine
 10
393.561153397
 20
275.500000000
 30
0.000000000
 11
315.226304787
 21
275.500000000
 31
0.000000000
  0
CIRCLE
  5
A93
330
A02
100
AcDbEntity
  8
View003
100
AcDbCircle
 10
310.643729092
 20
277.500000000
 30
0.000000000
 40
1.600000000
  0
CIRCLE
  5
A94
330
A02
100
AcDbEntity
  8
View003
100
AcDbCircle
 10
223.143729092
 20
277.500000000
 30
0.000000000
 40
1.600000000
  0
CIRCLE
  5
A95
330
A02
100
AcDbEntity
  8
View003
100
AcDbCircle
 10
398.143729092
 20
277.500000000
 30
0.000000000
 40
1.600000000
  0
ARC
  5
A96
330
A02
100
AcDbEntity
  8
View004
100
AcDbCircle
 10
207.500000000
 20
230.500000000
 30
0.000000000
 40
5.000000000
100
AcDbArc
 50
23.578178478
 51
66.421821522
  0
LINE
  5
A97
330
A02
100
AcDbEntity
  8
View004
100
AcDbLine
 10
209.500000000
 20
235.082575695
 30
0.000000000
 11
209.500000000
 21
270.500000000
 31
0.000000000
  0
LINE
  5
A98
330
A02
100
AcDbEntity
  8
View004
100
AcDbLine
 10
202.500000000
 20
270.500000000
 30
0.000000000
 11
209.500000000
 21
270.500000000
 31
0.000000000
  0
LINE
  5
A99
330
A02
100
AcDbEntity
  8
View004
100
AcDbLine
 10
202.500000000
 20
230.500000000
 30
0.000000000
 11
202.500000000
 21
270.500000000
 31
0.000000000
  0
ARC
  5
A9A
330
A02
100
AcDbEntity
  8
View004
100
AcDbCircle
 10
207.500000000
 20
230.500000000
 30
0.000000000
 40
5.000000000
100
AcDbArc
 50
180.000000000
 51
-90.000000000
  0
LINE
  5
A9B
330
A02
100
AcDbEntity
  8
View004
100
AcDbLine
 10
207.500000000
 20
225.500000000
 30
0.000000000
 11
382.500000000
 21
225.500000000
 31
0.000000000
  0
ARC
  5
A9C
330
A02
100
AcDbEntity
  8
View004
100
AcDbCircle
 10
382.500000000
 20
230.500000000
 30
0.000000000
 40
5.000000000
100
AcDbArc
 50
-90.000000000
 51
0.000000000
  0
LINE
  5
A9D
330
A02
100
AcDbEntity
  8
View004
100
AcDbLine
 10
387.500000000
 20
230.500000000
 30
0.000000000
 11
387.500000000
 21
270.500000000
 31
0.000000000
  0
LINE
  5
A9E
330
A02
100
AcDbEntity
  8
View004
100
AcDbLine
 10
387.500000000
 20
270.500000000
 30
0.000000000
 11
382.500000000
 21
270.500000000
 31
0.000000000
  0
LINE
  5
A9F
330
A02
100
AcDbEntity
  8
View004
100
AcDbLine
 10
382.500000000
 20
270.500000000
 30
0.000000000
 11
382.500000000
 21
235.500000000
 31
0.000000000
  0
ARC
  5
AA0
330
A02
100
AcDbEntity
  8
View004
100
AcDbCircle
 10
382.500000000
 20
230.500000000
 30
0.000000000
 40
5.000000000
100
AcDbArc
 50
90.000000000
 51
156.421821522
  0
LINE
  5
AA1
330
A02
100
AcDbEntity
  8
View004
100
AcDbLine
 10
299.582575695
 20
232.500000000
 30
0.000000000
 11
377.917424305
 21
232.500000000
 31
0.000000000
  0
ARC
  5
AA2
330
A02
100
AcDbEntity
  8
View004
100
AcDbCircle
 10
295.000000000
 20
230.500000000
 30
0.000000000
 40
5.000000000
100
AcDbArc
 50
23.578178478
 51
156.421821522
  0
LINE
  5
AA3
330
A02
100
AcDbEntity
  8
View004
100
AcDbLine
 10
212.082575695
 20
232.500000000
 30
0.000000000
 11
290.417424305
 21
232.500000000
 31
0.000000000
  0
CIRCLE
  5
AA4
330
A02
100
AcDbEntity
  8
View004
100
AcDbCircle
 10
295.000000000
 20
230.500000000
 30
0.000000000
 40
1.600000000
  0
CIRCLE
  5
AA5
330
A02
100
AcDbEntity
  8
View004
100
AcDbCircle
 10
382.500000000
 20
230.500000000
 30
0.000000000
 40
1.600000000
  0
CIRCLE
  5
AA6
330
A02
100
AcDbEntity
  8
View004
100
AcDbCircle
 10
207.500000000
 20
230.500000000
 30
0.000000000
 40
1.600000000
  0
ARC
  5
AA7
330
A02
100
AcDbEntity
  8
View005
100
AcDbCircle
 10
411.500000000
 20
111.500000000
 30
0.000000000
 40
5.000000000
100
AcDbArc
 50
113.578178478
 51
156.421821522
  0
LINE
  5
AA8
330
A02
100
AcDbEntity
  8
View005
100
AcDbLine
 10
406.917424305
 20
113.500000000
 30
0.000000000
 11
371.500000000
 21
113.500000000
 31
0.000000000
  0
LINE
  5
AA9
330
A02
100
AcDbEntity
  8
View005
100
AcDbLine
 10
371.500000000
 20
106.500000000
 30
0.000000000
 11
371.500000000
 21
113.500000000
 31
0.000000000
  0
LINE
  5
AAA
330
A02
100
AcDbEntity
  8
View005
100
AcDbLine
 10
411.500000000
 20
106.500000000
 30
0.000000000
 11
371.500000000
 21
106.500000000
 31
0.000000000
  0
ARC
  5
AAB
330
A02
100
AcDbEntity
  8
View005
100
AcDbCircle
 10
411.500000000
 20
111.500000000
 30
0.000000000
 40
5.000000000
100
AcDbArc
 50
-90.000000000
 51
0.000000000
  0
LINE
  5
AAC
330
A02
100
AcDbEntity
  8
View005
100
AcDbLine
 10
416.500000000
 20
111.500000000
 30
0.000000000
 11
416.500000000
 21
286.500000000
 31
0.000000000
  0
ARC
  5
AAD
330
A02
100
AcDbEntity
  8
View005
100
AcDbCircle
 10
411.500000000
 20
286.500000000
 30
0.000000000
 40
5.000000000
100
AcDbArc
 50
0.000000000
 51
90.000000000
  0
LINE
  5
AAE
330
A02
100
AcDbEntity
  8
View005
100
AcDbLine
 10
411.500000000
 20
291.500000000
 30
0.000000000
 11
371.500000000
 21
291.500000000
 31
0.000000000
  0
LINE
  5
AAF
330
A02
100
AcDbEntity
  8
View005
100
AcDbLine
 10
371.500000000
 20
291.500000000
 30
0.000000000
 11
371.500000000
 21
286.500000000
 31
0.000000000
  0
LINE
  5
AB0
330
A02
100
AcDbEntity
  8
View005
100
AcDbLine
 10
371.500000000
 20
286.500000000
 30
0.000000000
 11
406.500000000
 21
286.500000000
 31
0.000000000
  0
ARC
  5
AB1
330
A02
100
AcDbEntity
  8
View005
100
AcDbCircle
 10
411.500000000
 20
286.500000000
 30
0.000000000
 40
5.000000000
100
AcDbArc
 50
180.000000000
 51
-113.578178478
  0
LINE
  5
AB2
330
A02
100
AcDbEntity
  8
View005
100
AcDbLine
 10
409.500000000
 20
203.582575695
 30
0.000000000
 11
409.500000000
 21
281.917424305
 31
0.000000000
  0
ARC
  5
AB3
330
A02
100
AcDbEntity
  8
View005
100
AcDbCircle
 10
411.500000000
 20
199.000000000
 30
0.000000000
 40
5.000000000
100
AcDbArc
 50
113.578178478
 51
-113.578178478
  0
LINE
  5
AB4
330
A02
100
AcDbEntity
  8
View005
100
AcDbLine
 10
409.500000000
 20
116.082575695
 30
0.000000000
 11
409.500000000
 21
194.417424305
 31
0.000000000
  0
CIRCLE
  5
AB5
330
A02
100
AcDbEntity
  8
View005
100
AcDbCircle
 10
411.500000000
 20
199.000000000
 30
0.000000000
 40
1.600000000
  0
CIRCLE
  5
AB6
330
A02
100
AcDbEntity
  8
View005
100
AcDbCircle
 10
411.500000000
 20
286.500000000
 30
0.000000000
 40
1.600000000
  0
CIRCLE
  5
AB7
330
A02
100
AcDbEntity
  8
View005
100
AcDbCircle
 10
411.500000000
 20
111.500000000
 30
0.000000000
 40
1.600000000
  0
LINE
  5
AB8
330
A02
100
AcDbEntity
  8
View006
100
AcDbLine
 10
187.000000000
 20
56.500000000
 30
0.000000000
 11
187.000000000
 21
85.499999437
 31
0.000000000
  0
ARC
  5
AB9
330
A02
100
AcDbEntity
  8
View006
100
AcDbCircle
 10
182.000000000
 20
56.500000000
 30
0.000000000
 40
5.000000000
100
AcDbArc
 50
-90.000000000
 51
0.000000000
  0
LINE
  5
ABA
330
A02
100
AcDbEntity
  8
View006
100
AcDbLine
 10
7.000000000
 20
51.500000000
 30
0.000000000
 11
182.000000000
 21
51.500000000
 31
0.000000000
  0
ARC
  5
ABB
330
A02
100
AcDbEntity
  8
View006
100
AcDbCircle
 10
7.000000000
 20
56.500000000
 30
0.000000000
 40
5.000000000
100
AcDbArc
 50
180.000000000
 51
-90.000000000
  0
LINE
  5
ABC
330
A02
100
AcDbEntity
  8
View006
100
AcDbLine
 10
2.000000000
 20
56.500000000
 30
0.000000000
 11
2.000000000
 21
96.500000000
 31
0.000000000
  0
ARC
  5
ABD
330
A02
100
AcDbEntity
  8
View006
100
AcDbCircle
 10
7.000000000
 20
56.500000000
 30
0.000000000
 40
5.000000000
100
AcDbArc
 50
23.578178478
 51
66.421821522
  0
LINE
  5
ABE
330
A02
100
AcDbEntity
  8
View006
100
AcDbLine
 10
11.582575695
 20
58.500000000
 30
0.000000000
 11
89.917424305
 21
58.500000000
 31
0.000000000
  0
LINE
  5
ABF
330
A02
100
AcDbEntity
  8
View006
100
AcDbLine
 10
9.000000000
 20
61.082575695
 30
0.000000000
 11
9.000000000
 21
96.500000000
 31
0.000000000
  0
ARC
  5
AC0
330
A02
100
AcDbEntity
  8
View006
100
AcDbCircle
 10
94.500000000
 20
56.500000000
 30
0.000000000
 40
5.000000000
100
AcDbArc
 50
23.578178478
 51
156.421821522
  0
LINE
  5
AC1
330
A02
100
AcDbEntity
  8
View006
100
AcDbLine
 10
2.000000000
 20
96.500000000
 30
0.000000000
 11
9.000000000
 21
96.500000000
 31
0.000000000
  0
LINE
  5
AC2
330
A02
100
AcDbEntity
  8
View006
100
AcDbLine
 10
99.082575695
 20
58.500000000
 30
0.000000000
 11
177.417424305
 21
58.500000000
 31
0.000000000
  0
ARC
  5
AC3
330
A02
100
AcDbEntity
  8
View006
100
AcDbCircle
 10
182.000000000
 20
56.500000000
 30
0.000000000
 40
5.000000000
100
AcDbArc
 50
90.000000000
 51
156.421821522
  0
ARC
  5
AC4
330
A02
100
AcDbEntity
  8
View006
100
AcDbCircle
 10
189.000000000
 20
85.500000000
 30
0.000000000
 40
2.000000000
100
AcDbArc
 50
90.000000000
 51
-179.999983858
  0
LINE
  5
AC5
330
A02
100
AcDbEntity
  8
View006
100
AcDbLine
 10
189.000000000
 20
87.500000000
 30
0.000000000
 11
198.000000000
 21
87.500000000
 31
0.000000000
  0
LINE
  5
AC6
330
A02
100
AcDbEntity
  8
View006
100
AcDbLine
 10
200.000000000
 20
89.500000000
 30
0.000000000
 11
200.000000000
 21
96.500000000
 31
0.000000000
  0
ARC
  5
AC7
330
A02
100
AcDbEntity
  8
View006
100
AcDbCircle
 10
198.000000000
 20
89.500000000
 30
0.000000000
 40
2.000000000
100
AcDbArc
 50
-90.000000000
 51
0.000000000
  0
CIRCLE
  5
AC8
330
A02
100
AcDbEntity
  8
View006
100
AcDbCircle
 10
94.500000000
 20
56.500000000
 30
0.000000000
 40
1.600000000
  0
CIRCLE
  5
AC9
330
A02
100
AcDbEntity
  8
View006
100
AcDbCircle
 10
182.000000000
 20
56.500000000
 30
0.000000000
 40
1.600000000
  0
CIRCLE
  5
ACA
330
A02
100
AcDbEntity
  8
View006
100
AcDbCircle
 10
7.000000000
 20
56.500000000
 30
0.000000000
 40
1.600000000
  0
LINE
  5
ACB
330
A02
100
AcDbEntity
  8
View006
100
AcDbLine
 10
195.000000000
 20
89.000000000
 30
0.000000000
 11
198.000000000
 21
89.000000000
 31
0.000000000
  0
LINE
  5
ACC
330
A02
100
AcDbEntity
  8
View006
100
AcDbLine
 10
195.000000000
 20
90.500000000
 30
0.000000000
 11
195.000000000
 21
89.000000000
 31
0.000000000
  0
LINE
  5
ACD
330
A02
100
AcDbEntity
  8
View006
100
AcDbLine
 10
198.000000000
 20
89.000000000
 30
0.000000000
 11
198.000000000
 21
90.500000000
 31
0.000000000
  0
LINE
  5
ACE
330
A02
100
AcDbEntity
  8
View006
100
AcDbLine
 10
198.000000000
 20
90.500000000
 30
0.000000000
 11
195.000000000
 21
90.500000000
 31
0.000000000
  0
LINE
  5
ACF
330
A02
100
AcDbEntity
  8
View006
100
AcDbLine
 10
189.000000000
 20
89.000000000
 30
0.000000000
 11
192.000000000
 21
89.000000000
 31
0.000000000
  0
LINE
  5
AD0
330
A02
100
AcDbEntity
  8
View006
100
AcDbLine
 10
189.000000000
 20
90.500000000
 30
0.000000000
 11
189.000000000
 21
89.000000000
 31
0.000000000
  0
LINE
  5
AD1
330
A02
100
AcDbEntity
  8
View006
100
AcDbLine
 10
192.000000000
 20
89.000000000
 30
0.000000000
 11
192.000000000
 21
90.500000000
 31
0.000000000
  0
LINE
  5
AD2
330
A02
100
AcDbEntity
  8
View006
100
AcDbLine
 10
192.000000000
 20
90.500000000
 30
0.000000000
 11
189.000000000
 21
90.500000000
 31
0.000000000
  0
LINE
  5
AD3
330
A02
100
AcDbEntity
  8
View006
100
AcDbLine
 10
200.000000000
 20
96.500000000
 30
0.000000000
 11
182.000000000
 21
96.500000000
 31
0.000000000
  0
LINE
  5
AD4
330
A02
100
AcDbEntity
  8
View006
100
AcDbLine
 10
182.000000000
 20
96.500000000
 30
0.000000000
 11
182.000000000
 21
61.500000000
 31
0.000000000
  0
LINE
  5
AD5
330
A02
100
AcDbEntity
  8
View007
100
AcDbLine
 10
26.000000000
 20
101.500000000
 30
0.000000000
 11
26.000000000
 21
72.500000563
 31
0.000000000
  0
ARC
  5
AD6
330
A02
100
AcDbEntity
  8
View007
100
AcDbCircle
 10
31.000000000
 20
101.500000000
 30
0.000000000
 40
5.000000000
100
AcDbArc
 50
90.000000000
 51
180.000000000
  0
LINE
  5
AD7
330
A02
100
AcDbEntity
  8
View007
100
AcDbLine
 10
206.000000000
 20
106.500000000
 30
0.000000000
 11
31.000000000
 21
106.500000000
 31
0.000000000
  0
ARC
  5
AD8
330
A02
100
AcDbEntity
  8
View007
100
AcDbCircle
 10
206.000000000
 20
101.500000000
 30
0.000000000
 40
5.000000000
100
AcDbArc
 50
0.000000000
 51
90.000000000
  0
LINE
  5
AD9
330
A02
100
AcDbEntity
  8
View007
100
AcDbLine
 10
211.000000000
 20
101.500000000
 30
0.000000000
 11
211.000000000
 21
61.500000000
 31
0.000000000
  0
ARC
  5
ADA
330
A02
100
AcDbEntity
  8
View007
100
AcDbCircle
 10
206.000000000
 20
101.500000000
 30
0.000000000
 40
5.000000000
100
AcDbArc
 50
-156.421821522
 51
-113.578178478
  0
LINE
  5
ADB
330
A02
100
AcDbEntity
  8
View007
100
AcDbLine
 10
201.417424305
 20
99.500000000
 30
0.000000000
 11
123.082575695
 21
99.500000000
 31
0.000000000
  0
LINE
  5
ADC
330
A02
100
AcDbEntity
  8
View007
100
AcDbLine
 10
204.000000000
 20
96.917424305
 30
0.000000000
 11
204.000000000
 21
61.500000000
 31
0.000000000
  0
ARC
  5
ADD
330
A02
100
AcDbEntity
  8
View007
100
AcDbCircle
 10
118.500000000
 20
101.500000000
 30
0.000000000
 40
5.000000000
100
AcDbArc
 50
-156.421821522
 51
-23.578178478
  0
LINE
  5
ADE
330
A02
100
AcDbEntity
  8
View007
100
AcDbLine
 10
211.000000000
 20
61.500000000
 30
0.000000000
 11
204.000000000
 21
61.500000000
 31
0.000000000
  0
LINE
  5
ADF
330
A02
100
AcDbEntity
  8
View007
100
AcDbLine
 10
113.917424305
 20
99.500000000
 30
0.000000000
 11
35.582575695
 21
99.500000000
 31
0.000000000
  0
ARC
  5
AE0
330
A02
100
AcDbEntity
  8
View007
100
AcDbCircle
 10
31.000000000
 20
101.500000000
 30
0.000000000
 40
5.000000000
100
AcDbArc
 50
-90.000000000
 51
-23.578178478
  0
ARC
  5
AE1
330
A02
100
AcDbEntity
  8
View007
100
AcDbCircle
 10
24.000000000
 20
72.500000000
 30
0.000000000
 40
2.000000000
100
AcDbArc
 50
-90.000000000
 51
0.000016142
  0
LINE
  5
AE2
330
A02
100
AcDbEntity
  8
View007
100
AcDbLine
 10
24.000000000
 20
70.500000000
 30
0.000000000
 11
15.000000000
 21
70.500000000
 31
0.000000000
  0
LINE
  5
AE3
330
A02
100
AcDbEntity
  8
View007
100
AcDbLine
 10
13.000000000
 20
68.500000000
 30
0.000000000
 11
13.000000000
 21
61.500000000
 31
0.000000000
  0
ARC
  5
AE4
330
A02
100
AcDbEntity
  8
View007
100
AcDbCircle
 10
15.000000000
 20
68.500000000
 30
0.000000000
 40
2.000000000
100
AcDbArc
 50
90.000000000
 51
180.000000000
  0
CIRCLE
  5
AE5
330
A02
100
AcDbEntity
  8
View007
100
AcDbCircle
 10
118.500000000
 20
101.500000000
 30
0.000000000
 40
1.600000000
  0
CIRCLE
  5
AE6
330
A02
100
AcDbEntity
  8
View007
100
AcDbCircle
 10
31.000000000
 20
101.500000000
 30
0.000000000
 40
1.600000000
  0
CIRCLE
  5
AE7
330
A02
100
AcDbEntity
  8
View007
100
AcDbCircle
 10
206.000000000
 20
101.500000000
 30
0.000000000
 40
1.600000000
  0
LINE
  5
AE8
330
A02
100
AcDbEntity
  8
View007
100
AcDbLine
 10
18.000000000
 20
69.000000000
 30
0.000000000
 11
15.000000000
 21
69.000000000
 31
0.000000000
  0
LINE
  5
AE9
330
A02
100
AcDbEntity
  8
View007
100
AcDbLine
 10
18.000000000
 20
67.500000000
 30
0.000000000
 11
18.000000000
 21
69.000000000
 31
0.000000000
  0
LINE
  5
AEA
330
A02
100
AcDbEntity
  8
View007
100
AcDbLine
 10
15.000000000
 20
69.000000000
 30
0.000000000
 11
15.000000000
 21
67.500000000
 31
0.000000000
  0
LINE
  5
AEB
330
A02
100
AcDbEntity
  8
View007
100
AcDbLine
 10
15.000000000
 20
67.500000000
 30
0.000000000
 11
18.000000000
 21
67.500000000
 31
0.000000000
  0
LINE
  5
AEC
330
A02
100
AcDbEntity
  8
View007
100
AcDbLine
 10
24.000000000
 20
69.000000000
 30
0.000000000
 11
21.000000000
 21
69.000000000
 31
0.000000000
  0
LINE
  5
AED
330
A02
100
AcDbEntity
  8
View007
100
AcDbLine
 10
24.000000000
 20
67.500000000
 30
0.000000000
 11
24.000000000
 21
69.000000000
 31
0.000000000
  0
LINE
  5
AEE
330
A02
100
AcDbEntity
  8
View007
100
AcDbLine
 10
21.000000000
 20
69.000000000
 30
0.000000000
 11
21.000000000
 21
67.500000000
 31
0.000000000
  0
LINE
  5
AEF
330
A02
100
AcDbEntity
  8
View007
100
AcDbLine
 10
21.000000000
 20
67.500000000
 30
0.000000000
 11
24.000000000
 21
67.500000000
 31
0.000000000
  0
LINE
  5
AF0
330
A02
100
AcDbEntity
  8
View007
100
AcDbLine
 10
13.000000000
 20
61.500000000
 30
0.000000000
 11
31.000000000
 21
61.500000000
 31
0.000000000
  0
LINE
  5
AF1
330
A02
100
AcDbEntity
  8
View007
100
AcDbLine
 10
31.000000000
 20
61.500000000
 30
0.000000000
 11
31.000000000
 21
96.500000000
 31
0.000000000
  0
ARC
  5
AF2
330
A02
100
AcDbEntity
  8
View008
100
AcDbCircle
 10
207.500000000
 20
122.500000000
 30
0.000000000
 40
5.000000000
100
AcDbArc
 50
23.578178478
 51
66.421821522
  0
LINE
  5
AF3
330
A02
100
AcDbEntity
  8
View008
100
AcDbLine
 10
212.082575695
 20
124.500000000
 30
0.000000000
 11
290.417424305
 21
124.500000000
 31
0.000000000
  0
LINE
  5
AF4
330
A02
100
AcDbEntity
  8
View008
100
AcDbLine
 10
209.500000000
 20
127.082575695
 30
0.000000000
 11
209.500000000
 21
162.500000000
 31
0.000000000
  0
ARC
  5
AF5
330
A02
100
AcDbEntity
  8
View008
100
AcDbCircle
 10
295.000000000
 20
122.500000000
 30
0.000000000
 40
5.000000000
100
AcDbArc
 50
23.578178478
 51
156.421821522
  0
LINE
  5
AF6
330
A02
100
AcDbEntity
  8
View008
100
AcDbLine
 10
299.582575695
 20
124.500000000
 30
0.000000000
 11
377.917424305
 21
124.500000000
 31
0.000000000
  0
ARC
  5
AF7
330
A02
100
AcDbEntity
  8
View008
100
AcDbCircle
 10
382.500000000
 20
122.500000000
 30
0.000000000
 40
5.000000000
100
AcDbArc
 50
90.000000000
 51
156.421821522
  0
LINE
  5
AF8
330
A02
100
AcDbEntity
  8
View008
100
AcDbLine
 10
382.500000000
 20
155.500000000
 30
0.000000000
 11
382.500000000
 21
127.500000000
 31
0.000000000
  0
LINE
  5
AF9
330
A02
100
AcDbEntity
  8
View008
100
AcDbLine
 10
387.500000000
 20
155.500000000
 30
0.000000000
 11
382.500000000
 21
155.500000000
 31
0.000000000
  0
LINE
  5
AFA
330
A02
100
AcDbEntity
  8
View008
100
AcDbLine
 10
387.500000000
 20
122.500000000
 30
0.000000000
 11
387.500000000
 21
155.500000000
 31
0.000000000
  0
ARC
  5
AFB
330
A02
100
AcDbEntity
  8
View008
100
AcDbCircle
 10
382.500000000
 20
122.500000000
 30
0.000000000
 40
5.000000000
100
AcDbArc
 50
-90.000000000
 51
0.000000000
  0
LINE
  5
AFC
330
A02
100
AcDbEntity
  8
View008
100
AcDbLine
 10
207.500000000
 20
117.500000000
 30
0.000000000
 11
382.500000000
 21
117.500000000
 31
0.000000000
  0
ARC
  5
AFD
330
A02
100
AcDbEntity
  8
View008
100
AcDbCircle
 10
207.500000000
 20
122.500000000
 30
0.000000000
 40
5.000000000
100
AcDbArc
 50
180.000000000
 51
-90.000000000
  0
LINE
  5
AFE
330
A02
100
AcDbEntity
  8
View008
100
AcDbLine
 10
202.500000000
 20
122.500000000
 30
0.000000000
 11
202.500000000
 21
162.500000000
 31
0.000000000
  0
LINE
  5
AFF
330
A02
100
AcDbEntity
  8
View008
100
AcDbLine
 10
202.500000000
 20
162.500000000
 30
0.000000000
 11
209.500000000
 21
162.500000000
 31
0.000000000
  0
CIRCLE
  5
B00
330
A02
100
AcDbEntity
  8
View008
100
AcDbCircle
 10
382.500000000
 20
122.500000000
 30
0.000000000
 40
1.600000000
  0
CIRCLE
  5
B01
330
A02
100
AcDbEntity
  8
View008
100
AcDbCircle
 10
295.000000000
 20
122.500000000
 30
0.000000000
 40
1.600000000
  0
CIRCLE
  5
B02
330
A02
100
AcDbEntity
  8
View008
100
AcDbCircle
 10
207.500000000
 20
122.500000000
 30
0.000000000
 40
1.600000000
  0
ARC
  5
B03
330
A02
100
AcDbEntity
  8
View009
100
AcDbCircle
 10
398.143729092
 20
161.500000000
 30
0.000000000
 40
5.000000000
100
AcDbArc
 50
-156.421821522
 51
-113.578178478
  0
LINE
  5
B04
330
A02
100
AcDbEntity
  8
View009
100
AcDbLine
 10
393.561153397
 20
159.500000000
 30
0.000000000
 11
315.226304787
 21
159.500000000
 31
0.000000000
  0
LINE
  5
B05
330
A02
100
AcDbEntity
  8
View009
100
AcDbLine
 10
396.143729092
 20
156.917424305
 30
0.000000000
 11
396.143729092
 21
121.500000000
 31
0.000000000
  0
ARC
  5
B06
330
A02
100
AcDbEntity
  8
View009
100
AcDbCircle
 10
310.643729092
 20
161.500000000
 30
0.000000000
 40
5.000000000
100
AcDbArc
 50
-156.421821522
 51
-23.578178478
  0
LINE
  5
B07
330
A02
100
AcDbEntity
  8
View009
100
AcDbLine
 10
306.061153397
 20
159.500000000
 30
0.000000000
 11
227.726304787
 21
159.500000000
 31
0.000000000
  0
ARC
  5
B08
330
A02
100
AcDbEntity
  8
View009
100
AcDbCircle
 10
223.143729092
 20
161.500000000
 30
0.000000000
 40
5.000000000
100
AcDbArc
 50
-90.000000000
 51
-23.578178478
  0
LINE
  5
B09
330
A02
100
AcDbEntity
  8
View009
100
AcDbLine
 10
223.143729092
 20
128.500000000
 30
0.000000000
 11
223.143729092
 21
156.500000000
 31
0.000000000
  0
LINE
  5
B0A
330
A02
100
AcDbEntity
  8
View009
100
AcDbLine
 10
218.143729092
 20
128.500000000
 30
0.000000000
 11
223.143729092
 21
128.500000000
 31
0.000000000
  0
LINE
  5
B0B
330
A02
100
AcDbEntity
  8
View009
100
AcDbLine
 10
218.143729092
 20
161.500000000
 30
0.000000000
 11
218.143729092
 21
128.500000000
 31
0.000000000
  0
ARC
  5
B0C
330
A02
100
AcDbEntity
  8
View009
100
AcDbCircle
 10
223.143729092
 20
161.500000000
 30
0.000000000
 40
5.000000000
100
AcDbArc
 50
90.000000000
 51
180.000000000
  0
LINE
  5
B0D
330
A02
100
AcDbEntity
  8
View009
100
AcDbLine
 10
398.143729092
 20
166.500000000
 30
0.000000000
 11
223.143729092
 21
166.500000000
 31
0.000000000
  0
ARC
  5
B0E
330
A02
100
AcDbEntity
  8
View009
100
AcDbCircle
 10
398.143729092
 20
161.500000000
 30
0.000000000
 40
5.000000000
100
AcDbArc
 50
0.000000000
 51
90.000000000
  0
LINE
  5
B0F
330
A02
100
AcDbEntity
  8
View009
100
AcDbLine
 10
403.143729092
 20
161.500000000
 30
0.000000000
 11
403.143729092
 21
121.500000000
 31
0.000000000
  0
LINE
  5
B10
330
A02
100
AcDbEntity
  8
View009
100
AcDbLine
 10
403.143729092
 20
121.500000000
 30
0.000000000
 11
396.143729092
 21
121.500000000
 31
0.000000000
  0
CIRCLE
  5
B11
330
A02
100
AcDbEntity
  8
View009
100
AcDbCircle
 10
223.143729092
 20
161.500000000
 30
0.000000000
 40
1.600000000
  0
CIRCLE
  5
B12
330
A02
100
AcDbEntity
  8
View009
100
AcDbCircle
 10
310.643729092
 20
161.500000000
 30
0.000000000
 40
1.600000000
  0
CIRCLE
  5
B13
330
A02
100
AcDbEntity
  8
View009
100
AcDbCircle
 10
398.143729092
 20
161.500000000
 30
0.000000000
 40
1.600000000
  0
ARC
  5
B14
330
A02
100
AcDbEntity
  8
View010
100
AcDbCircle
 10
398.143729092
 20
215.500000000
 30
0.000000000
 40
5.000000000
100
AcDbArc
 50
-156.421821522
 51
-113.578178478
  0
LINE
  5
B15
330
A02
100
AcDbEntity
  8
View010
100
AcDbLine
 10
393.561153397
 20
213.500000000
 30
0.000000000
 11
315.226304787
 21
213.500000000
 31
0.000000000
  0
LINE
  5
B16
330
A02
100
AcDbEntity
  8
View010
100
AcDbLine
 10
396.143729092
 20
210.917424305
 30
0.000000000
 11
396.143729092
 21
175.500000000
 31
0.000000000
  0
ARC
  5
B17
330
A02
100
AcDbEntity
  8
View010
100
AcDbCircle
 10
310.643729092
 20
215.500000000
 30
0.000000000
 40
5.000000000
100
AcDbArc
 50
-156.421821522
 51
-23.578178478
  0
LINE
  5
B18
330
A02
100
AcDbEntity
  8
View010
100
AcDbLine
 10
306.061153397
 20
213.500000000
 30
0.000000000
 11
227.726304787
 21
213.500000000
 31
0.000000000
  0
ARC
  5
B19
330
A02
100
AcDbEntity
  8
View010
100
AcDbCircle
 10
223.143729092
 20
215.500000000
 30
0.000000000
 40
5.000000000
100
AcDbArc
 50
-90.000000000
 51
-23.578178478
  0
LINE
  5
B1A
330
A02
100
AcDbEntity
  8
View010
100
AcDbLine
 10
223.143729092
 20
182.500000000
 30
0.000000000
 11
223.143729092
 21
210.500000000
 31
0.000000000
  0
LINE
  5
B1B
330
A02
100
AcDbEntity
  8
View010
100
AcDbLine
 10
218.143729092
 20
182.500000000
 30
0.000000000
 11
223.143729092
 21
182.500000000
 31
0.000000000
  0
LINE
  5
B1C
330
A02
100
AcDbEntity
  8
View010
100
AcDbLine
 10
218.143729092
 20
215.500000000
 30
0.000000000
 11
218.143729092
 21
182.500000000
 31
0.000000000
  0
ARC
  5
B1D
330
A02
100
AcDbEntity
  8
View010
100
AcDbCircle
 10
223.143729092
 20
215.500000000
 30
0.000000000
 40
5.000000000
100
AcDbArc
 50
90.000000000
 51
180.000000000
  0
LINE
  5
B1E
330
A02
100
AcDbEntity
  8
View010
100
AcDbLine
 10
398.143729092
 20
220.500000000
 30
0.000000000
 11
223.143729092
 21
220.500000000
 31
0.000000000
  0
ARC
  5
B1F
330
A02
100
AcDbEntity
  8
View010
100
AcDbCircle
 10
398.143729092
 20
215.500000000
 30
0.000000000
 40
5.000000000
100
AcDbArc
 50
0.000000000
 51
90.000000000
  0
LINE
  5
B20
330
A02
100
AcDbEntity
  8
View010
100
AcDbLine
 10
403.143729092
 20
215.500000000
 30
0.000000000
 11
403.143729092
 21
175.500000000
 31
0.000000000
  0
LINE
  5
B21
330
A02
100
AcDbEntity
  8
View010
100
AcDbLine
 10
403.143729092
 20
175.500000000
 30
0.000000000
 11
396.143729092
 21
175.500000000
 31
0.000000000
  0
CIRCLE
  5
B22
330
A02
100
AcDbEntity
  8
View010
100
AcDbCircle
 10
223.143729092
 20
215.500000000
 30
0.000000000
 40
1.600000000
  0
CIRCLE
  5
B23
330
A02
100
AcDbEntity
  8
View010
100
AcDbCircle
 10
310.643729092
 20
215.500000000
 30
0.000000000
 40
1.600000000
  0
CIRCLE
  5
B24
330
A02
100
AcDbEntity
  8
View010
100
AcDbCircle
 10
398.143729092
 20
215.500000000
 30
0.000000000
 40
1.600000000
  0
ARC
  5
B25
330
A02
100
AcDbEntity
  8
View011
100
AcDbCircle
 10
207.500000000
 20
175.500000000
 30
0.000000000
 40
5.000000000
100
AcDbArc
 50
23.578178478
 51
66.421821522
  0
LINE
  5
B26
330
A02
100
AcDbEntity
  8
View011
100
AcDbLine
 10
212.082575695
 20
177.500000000
 30
0.000000000
 11
290.417424305
 21
177.500000000
 31
0.000000000
  0
LINE
  5
B27
330
A02
100
AcDbEntity
  8
View011
100
AcDbLine
 10
209.500000000
 20
180.082575695
 30
0.000000000
 11
209.500000000
 21
215.500000000
 31
0.000000000
  0
ARC
  5
B28
330
A02
100
AcDbEntity
  8
View011
100
AcDbCircle
 10
295.000000000
 20
175.500000000
 30
0.000000000
 40
5.000000000
100
AcDbArc
 50
23.578178478
 51
156.421821522
  0
LINE
  5
B29
330
A02
100
AcDbEntity
  8
View011
100
AcDbLine
 10
299.582575695
 20
177.500000000
 30
0.000000000
 11
377.917424305
 21
177.500000000
 31
0.000000000
  0
ARC
  5
B2A
330
A02
100
AcDbEntity
  8
View011
100
AcDbCircle
 10
382.500000000
 20
175.500000000
 30
0.000000000
 40
5.000000000
100
AcDbArc
 50
90.000000000
 51
156.421821522
  0
LINE
  5
B2B
330
A02
100
AcDbEntity
  8
View011
100
AcDbLine
 10
382.500000000
 20
208.500000000
 30
0.000000000
 11
382.500000000
 21
180.500000000
 31
0.000000000
  0
LINE
  5
B2C
330
A02
100
AcDbEntity
  8
View011
100
AcDbLine
 10
387.500000000
 20
208.500000000
 30
0.000000000
 11
382.500000000
 21
208.500000000
 31
0.000000000
  0
LINE
  5
B2D
330
A02
100
AcDbEntity
  8
View011
100
AcDbLine
 10
387.500000000
 20
175.500000000
 30
0.000000000
 11
387.500000000
 21
208.500000000
 31
0.000000000
  0
ARC
  5
B2E
330
A02
100
AcDbEntity
  8
View011
100
AcDbCircle
 10
382.500000000
 20
175.500000000
 30
0.000000000
 40
5.000000000
100
AcDbArc
 50
-90.000000000
 51
0.000000000
  0
LINE
  5
B2F
330
A02
100
AcDbEntity
  8
View011
100
AcDbLine
 10
207.500000000
 20
170.500000000
 30
0.000000000
 11
382.500000000
 21
170.500000000
 31
0.000000000
  0
ARC
  5
B30
330
A02
100
AcDbEntity
  8
View011
100
AcDbCircle
 10
207.500000000
 20
175.500000000
 30
0.000000000
 40
5.000000000
100
AcDbArc
 50
180.000000000
 51
-90.000000000
  0
LINE
  5
B31
330
A02
100
AcDbEntity
  8
View011
100
AcDbLine
 10
202.500000000
 20
175.500000000
 30
0.000000000
 11
202.500000000
 21
215.500000000
 31
0.000000000
  0
LINE
  5
B32
330
A02
100
AcDbEntity
  8
View011
100
AcDbLine
 10
202.500000000
 20
215.500000000
 30
0.000000000
 11
209.500000000
 21
215.500000000
 31
0.000000000
  0
CIRCLE
  5
B33
330
A02
100
AcDbEntity
  8
View011
100
AcDbCircle
 10
382.500000000
 20
175.500000000
 30
0.000000000
 40
1.600000000
  0
CIRCLE
  5
B34
330
A02
100
AcDbEntity
  8
View011
100
AcDbCircle
 10
295.000000000
 20
175.500000000
 30
0.000000000
 40
1.600000000
  0
CIRCLE
  5
B35
330
A02
100
AcDbEntity
  8
View011
100
AcDbCircle
 10
207.500000000
 20
175.500000000
 30
0.000000000
 40
1.600000000
  0
ENDSEC
  0
SECTION
  2
OBJECTS
  0
DICTIONARY
  5
F000
330
0
100
AcDbDictionary
  3
ACAD_GROUP
350
F001
  0
DICTIONARY
  5
F001
330
F000
100
AcDbDictionary
  0
ENDSEC
  0
EOF